<?xml version="1.0" standalone="no"?>
<!DOCTYPE svg PUBLIC "-//W3C//DTD SVG 20010904//EN"
 "http://www.w3.org/TR/2001/REC-SVG-20010904/DTD/svg10.dtd">
<svg version="1.0" xmlns="http://www.w3.org/2000/svg"
 width="128.000000pt" height="128.000000pt" viewBox="0 0 128.000000 128.000000"
 preserveAspectRatio="xMidYMid meet">
<metadata>
Created by potrace 1.11, written by Peter Selinger 2001-2013
</metadata>
<g transform="translate(0.000000,128.000000) scale(0.100000,-0.100000)"
fill="#000000" stroke="none">
<path d="M262 1258 c-24 -11 -55 -37 -70 -56 l-27 -35 0 -452 0 -452 28 -36
c31 -41 50 -54 92 -61 33 -6 29 -1 43 -53 16 -54 68 -100 124 -108 24 -3 183
-5 353 -3 l310 3 0 395 0 395 -325 5 c-285 4 -329 7 -357 23 -39 21 -56 50
-59 101 -3 57 13 93 54 118 36 22 45 23 312 25 390 2 352 -1 348 26 l-3 22
-300 3 c-184 2 -314 -1 -335 -7 -53 -16 -108 -66 -121 -111 l-12 -39 -38 20
c-48 24 -67 60 -64 122 2 57 39 102 95 116 19 5 161 9 315 9 154 0 286 1 293
1 8 1 12 10 10 24 l-3 22 -310 2 c-297 2 -312 1 -353 -19z m11 -333 l47 -20 0
-342 c0 -188 -4 -344 -8 -347 -13 -8 -72 25 -85 48 -13 23 -21 690 -8 684 4
-2 28 -12 54 -23z m149 -156 c39 -20 58 -21 342 -23 l301 -1 1 -346 1 -347
-311 2 c-229 1 -317 5 -334 14 -45 26 -49 55 -49 400 0 177 2 322 4 322 2 0
22 -9 45 -21z"/>
<path d="M457 947 c-14 -38 3 -40 289 -39 380 0 346 -2 342 25 l-3 22 -311 3
c-255 2 -313 0 -317 -11z"/>
</g>
</svg>
